<svg xmlns="http://www.w3.org/2000/svg" xmlns:xlink="http://www.w3.org/1999/xlink" width="500" zoomAndPan="magnify" viewBox="0 0 375 374.999991" height="500" preserveAspectRatio="xMidYMid meet" version="1.0"><defs><clipPath id="85e348f956"><path d="M 37.5 37.5 L 338 37.5 L 338 337.5 L 37.5 337.5 Z M 37.5 37.5 " clip-rule="nonzero"/></clipPath></defs><path fill="#ff66c4" d="M 187.527344 90.925781 C 206.261719 90.925781 221.5 106.164062 221.5 124.898438 C 221.5 143.632812 206.261719 158.871094 187.527344 158.871094 C 168.792969 158.871094 153.554688 143.632812 153.554688 124.898438 C 153.554688 106.164062 168.792969 90.925781 187.527344 90.925781 Z M 160.023438 223.601562 C 151.070312 219.519531 141.308594 216.414062 131.011719 214.371094 C 131.921875 195.902344 147.160156 182.1875 167.171875 182.1875 L 207.8125 182.1875 C 227.824219 182.1875 243.066406 195.914062 243.972656 214.386719 C 233.699219 216.429688 223.964844 219.527344 215.027344 223.601562 C 204.75 228.289062 195.519531 234.285156 187.527344 241.449219 C 179.535156 234.285156 170.300781 228.289062 160.023438 223.601562 Z M 183.929688 280.507812 C 180.40625 277.710938 175.460938 274.117188 169.359375 270.535156 C 161.890625 266.152344 154.222656 262.6875 146.558594 260.238281 C 137.761719 257.429688 128.949219 255.949219 120.332031 255.84375 L 104.949219 218.832031 C 110.199219 218.882812 119.066406 219.347656 129.523438 221.414062 C 144.605469 224.390625 166.144531 231.402344 183.929688 247.898438 Z M 228.496094 260.238281 C 220.832031 262.6875 213.164062 266.152344 205.699219 270.535156 C 199.59375 274.117188 194.648438 277.710938 191.125 280.507812 L 191.125 247.898438 C 208.910156 231.402344 230.449219 224.390625 245.53125 221.414062 C 255.992188 219.347656 264.859375 218.882812 270.101562 218.832031 L 254.722656 255.84375 C 246.105469 255.953125 237.292969 257.429688 228.496094 260.238281 Z M 329.507812 155.144531 C 327.683594 145.84375 324.9375 136.730469 321.320312 127.96875 C 314.09375 110.445312 303.371094 94.367188 289.964844 80.949219 C 276.5625 67.53125 260.507812 56.753906 242.988281 49.488281 C 234.226562 45.851562 225.109375 43.082031 215.804688 41.238281 C 206.5 39.386719 197.015625 38.460938 187.527344 38.453125 C 178.039062 38.460938 168.554688 39.386719 159.25 41.238281 C 149.945312 43.078125 140.824219 45.851562 132.066406 49.488281 C 114.542969 56.753906 98.492188 67.53125 85.089844 80.949219 C 71.683594 94.367188 60.957031 110.445312 53.730469 127.96875 C 50.113281 136.730469 47.367188 145.84375 45.542969 155.144531 C 43.71875 164.4375 42.816406 173.914062 42.824219 183.386719 C 42.84375 192.859375 43.773438 202.328125 45.628906 211.613281 C 47.480469 220.902344 50.25 230 53.890625 238.738281 C 57.527344 247.480469 62.03125 255.851562 67.308594 263.710938 C 72.578125 271.570312 78.632812 278.898438 85.320312 285.589844 C 98.707031 298.964844 114.730469 309.691406 132.214844 316.921875 C 140.957031 320.539062 150.054688 323.285156 159.332031 325.117188 C 168.609375 326.949219 178.070312 327.859375 187.527344 327.859375 C 196.984375 327.859375 206.445312 326.949219 215.71875 325.113281 C 225 323.285156 234.097656 320.535156 242.835938 316.917969 C 260.320312 309.691406 276.34375 298.964844 289.730469 285.589844 C 296.421875 278.898438 302.46875 271.566406 307.742188 263.707031 C 313.019531 255.851562 317.523438 247.476562 321.160156 238.738281 C 324.800781 230 327.570312 220.902344 329.421875 211.613281 C 331.277344 202.328125 332.210938 192.859375 332.230469 183.386719 C 332.238281 173.914062 331.335938 164.4375 329.507812 155.144531 " fill-opacity="1" fill-rule="nonzero"/><g clip-path="url(#85e348f956)"><path fill="#cd65a5" d="M 329.421875 211.617188 C 327.570312 220.902344 324.796875 230 321.160156 238.738281 C 317.523438 247.476562 313.015625 255.851562 307.742188 263.707031 C 302.464844 271.566406 296.417969 278.898438 289.730469 285.589844 C 276.339844 298.96875 260.316406 309.691406 242.835938 316.917969 C 234.09375 320.539062 224.996094 323.285156 215.71875 325.113281 C 206.441406 326.949219 196.984375 327.859375 187.527344 327.859375 C 178.066406 327.859375 168.609375 326.949219 159.332031 325.117188 C 150.050781 323.285156 140.953125 320.539062 132.214844 316.921875 C 114.730469 309.691406 98.707031 298.96875 85.320312 285.589844 C 78.632812 278.898438 72.578125 271.570312 67.304688 263.710938 C 62.03125 255.851562 57.527344 247.480469 53.890625 238.742188 C 50.25 230 47.480469 220.902344 45.628906 211.617188 C 43.773438 202.332031 42.84375 192.859375 42.824219 183.390625 C 42.816406 173.914062 43.714844 164.441406 45.542969 155.144531 C 47.367188 145.84375 50.113281 136.730469 53.730469 127.96875 C 60.957031 110.445312 71.683594 94.367188 85.089844 80.953125 C 98.488281 67.53125 114.542969 56.757812 132.066406 49.492188 C 140.824219 45.851562 149.941406 43.082031 159.25 41.238281 C 168.550781 39.390625 178.039062 38.464844 187.527344 38.457031 C 197.015625 38.464844 206.5 39.390625 215.804688 41.238281 C 225.109375 43.085938 234.226562 45.851562 242.988281 49.492188 C 260.507812 56.757812 276.5625 67.53125 289.964844 80.953125 C 303.367188 94.371094 314.089844 110.445312 321.320312 127.96875 C 324.933594 136.730469 327.679688 145.847656 329.507812 155.144531 C 331.332031 164.441406 332.234375 173.914062 332.226562 183.390625 C 332.207031 192.859375 331.273438 202.332031 329.421875 211.617188 Z M 337.335938 183.390625 C 337.066406 173.589844 335.851562 163.835938 333.695312 154.316406 C 332.617188 149.558594 331.304688 144.855469 329.769531 140.238281 C 328.230469 135.621094 326.460938 131.089844 324.496094 126.652344 C 322.527344 122.214844 320.34375 117.882812 317.953125 113.675781 C 316.757812 111.566406 315.511719 109.496094 314.214844 107.453125 C 313.902344 106.9375 313.574219 106.433594 313.238281 105.929688 L 312.242188 104.410156 C 311.921875 103.902344 311.574219 103.40625 311.234375 102.910156 L 310.203125 101.417969 C 307.429688 97.464844 304.46875 93.648438 301.328125 89.992188 C 300.546875 89.078125 299.734375 88.183594 298.941406 87.277344 L 296.496094 84.625 L 293.996094 82.023438 L 291.429688 79.484375 C 277.574219 66.132812 261.199219 55.515625 243.457031 48.355469 C 239.023438 46.566406 234.503906 44.996094 229.917969 43.632812 C 225.335938 42.277344 220.6875 41.15625 216 40.246094 C 211.3125 39.332031 206.578125 38.664062 201.828125 38.207031 C 197.074219 37.75 192.296875 37.523438 187.527344 37.527344 C 182.753906 37.523438 177.976562 37.75 173.226562 38.207031 C 168.472656 38.667969 163.738281 39.332031 159.050781 40.246094 C 154.363281 41.160156 149.714844 42.28125 145.132812 43.636719 C 140.550781 44.996094 136.03125 46.570312 131.59375 48.359375 C 113.855469 55.519531 97.484375 66.144531 83.632812 79.492188 C 76.726562 86.1875 70.402344 93.515625 64.867188 101.429688 L 63.835938 102.921875 C 63.492188 103.417969 63.148438 103.914062 62.824219 104.421875 L 61.832031 105.9375 C 61.5 106.441406 61.167969 106.949219 60.855469 107.464844 C 59.566406 109.507812 58.3125 111.578125 57.121094 113.6875 C 54.730469 117.894531 52.546875 122.226562 50.578125 126.664062 C 48.617188 131.101562 46.855469 135.632812 45.316406 140.25 C 43.78125 144.867188 42.46875 149.5625 41.390625 154.324219 C 39.238281 163.839844 38.023438 173.589844 37.753906 183.390625 C 37.496094 193.183594 38.179688 203.042969 39.835938 212.761719 C 41.492188 222.480469 44.097656 232.074219 47.671875 241.316406 C 54.804688 259.820312 65.71875 276.941406 79.601562 291.3125 C 83.074219 294.902344 86.726562 298.324219 90.539062 301.566406 C 91.5 302.363281 92.453125 303.175781 93.429688 303.960938 C 94.410156 304.734375 95.378906 305.527344 96.375 306.285156 C 97.378906 307.03125 98.371094 307.796875 99.386719 308.527344 L 100.917969 309.617188 C 101.429688 309.980469 101.933594 310.351562 102.457031 310.695312 L 104.011719 311.75 C 104.53125 312.105469 105.046875 312.457031 105.578125 312.792969 L 107.160156 313.808594 C 107.683594 314.148438 108.210938 314.484375 108.75 314.808594 C 110.886719 316.121094 113.050781 317.386719 115.25 318.597656 C 119.644531 321.015625 124.167969 323.21875 128.792969 325.179688 C 138.035156 329.117188 147.695312 332.105469 157.550781 334.105469 C 162.484375 335.101562 167.464844 335.855469 172.46875 336.359375 C 177.472656 336.851562 182.5 337.101562 187.527344 337.113281 C 197.578125 337.101562 207.640625 336.117188 217.5 334.113281 C 222.433594 333.125 227.3125 331.875 232.117188 330.382812 C 233.320312 330.03125 234.507812 329.613281 235.703125 329.226562 C 236.898438 328.839844 238.074219 328.394531 239.261719 327.976562 C 240.449219 327.5625 241.609375 327.082031 242.785156 326.632812 C 243.957031 326.1875 245.109375 325.679688 246.269531 325.199219 C 250.890625 323.234375 255.421875 321.046875 259.8125 318.621094 C 264.210938 316.203125 268.488281 313.570312 272.613281 310.722656 C 280.875 305.050781 288.53125 298.519531 295.476562 291.339844 C 309.371094 276.972656 320.289062 259.835938 327.417969 241.335938 C 334.574219 222.832031 337.871094 202.984375 337.335938 183.390625 " fill-opacity="1" fill-rule="nonzero"/></g><path fill="#000000" d="M 187.527344 158.875 C 168.792969 158.875 153.550781 143.632812 153.550781 124.898438 C 153.550781 106.164062 168.792969 90.925781 187.527344 90.925781 C 206.261719 90.925781 221.5 106.164062 221.5 124.898438 C 221.5 143.632812 206.261719 158.875 187.527344 158.875 Z M 187.527344 83.726562 C 164.824219 83.726562 146.355469 102.195312 146.355469 124.898438 C 146.355469 147.601562 164.824219 166.070312 187.527344 166.070312 C 210.230469 166.070312 228.699219 147.601562 228.699219 124.898438 C 228.699219 102.195312 210.230469 83.726562 187.527344 83.726562 " fill-opacity="1" fill-rule="nonzero"/><path fill="#000000" d="M 254.722656 255.84375 C 246.105469 255.953125 237.292969 257.429688 228.496094 260.238281 C 220.832031 262.6875 213.164062 266.152344 205.695312 270.535156 C 199.59375 274.117188 194.648438 277.710938 191.125 280.507812 L 191.125 247.898438 C 208.910156 231.40625 230.449219 224.394531 245.53125 221.414062 C 255.992188 219.347656 264.855469 218.882812 270.101562 218.832031 Z M 187.527344 241.449219 C 179.535156 234.285156 170.300781 228.289062 160.023438 223.601562 C 151.066406 219.519531 141.308594 216.414062 131.011719 214.375 C 131.921875 195.902344 147.160156 182.1875 167.171875 182.1875 L 207.8125 182.1875 C 227.824219 182.1875 243.066406 195.914062 243.972656 214.386719 C 233.699219 216.429688 223.964844 219.527344 215.027344 223.601562 C 204.75 228.289062 195.515625 234.285156 187.527344 241.449219 Z M 183.929688 280.507812 C 180.40625 277.710938 175.460938 274.117188 169.359375 270.535156 C 161.890625 266.152344 154.222656 262.6875 146.558594 260.238281 C 137.761719 257.429688 128.949219 255.953125 120.332031 255.84375 L 104.949219 218.832031 C 110.199219 218.882812 119.066406 219.347656 129.523438 221.414062 C 144.605469 224.394531 166.144531 231.40625 183.929688 247.898438 Z M 278.515625 213.441406 C 277.90625 212.457031 276.859375 211.824219 275.707031 211.742188 C 275.230469 211.710938 265.3125 211.050781 251.105469 213.152344 C 250.386719 202.8125 245.941406 193.421875 238.390625 186.46875 C 230.359375 179.066406 219.5 174.988281 207.8125 174.988281 L 167.171875 174.988281 C 155.484375 174.988281 144.621094 179.066406 136.589844 186.46875 C 129.042969 193.421875 124.59375 202.804688 123.875 213.140625 C 109.707031 211.050781 99.820312 211.710938 99.347656 211.742188 C 98.191406 211.824219 97.144531 212.457031 96.539062 213.441406 C 95.929688 214.425781 95.832031 215.644531 96.277344 216.714844 L 114.605469 260.828125 C 115.171875 262.191406 116.515625 263.074219 117.996094 263.046875 C 137.476562 262.699219 154.601562 270.246094 165.539062 276.640625 C 177.527344 283.648438 184.933594 290.851562 185.003906 290.921875 C 185.007812 290.925781 185.011719 290.929688 185.015625 290.933594 C 185.089844 291.007812 185.171875 291.078125 185.253906 291.144531 C 185.277344 291.164062 185.296875 291.175781 185.316406 291.191406 C 185.378906 291.246094 185.445312 291.292969 185.515625 291.335938 C 185.542969 291.351562 185.570312 291.371094 185.597656 291.390625 C 185.664062 291.433594 185.734375 291.476562 185.808594 291.515625 C 185.832031 291.527344 185.851562 291.542969 185.875 291.550781 C 185.960938 291.597656 186.046875 291.636719 186.136719 291.675781 C 186.140625 291.679688 186.148438 291.679688 186.152344 291.679688 C 186.222656 291.710938 186.292969 291.734375 186.363281 291.757812 C 186.40625 291.773438 186.449219 291.789062 186.488281 291.800781 C 186.558594 291.820312 186.625 291.835938 186.691406 291.851562 C 186.738281 291.863281 186.785156 291.878906 186.832031 291.886719 C 186.898438 291.902344 186.960938 291.90625 187.027344 291.914062 C 187.078125 291.921875 187.128906 291.933594 187.179688 291.9375 C 187.261719 291.945312 187.351562 291.949219 187.4375 291.949219 C 187.464844 291.949219 187.496094 291.957031 187.527344 291.957031 C 187.558594 291.957031 187.585938 291.949219 187.613281 291.949219 C 187.703125 291.949219 187.789062 291.945312 187.875 291.9375 C 187.925781 291.933594 187.976562 291.921875 188.027344 291.914062 C 188.089844 291.90625 188.15625 291.902344 188.21875 291.886719 C 188.269531 291.878906 188.320312 291.863281 188.367188 291.851562 C 188.433594 291.835938 188.5 291.820312 188.5625 291.800781 C 188.609375 291.789062 188.648438 291.769531 188.695312 291.753906 C 188.765625 291.730469 188.832031 291.707031 188.898438 291.683594 C 188.90625 291.679688 188.910156 291.679688 188.917969 291.675781 C 189.007812 291.636719 189.09375 291.597656 189.179688 291.550781 C 189.203125 291.542969 189.21875 291.527344 189.242188 291.515625 C 189.316406 291.476562 189.386719 291.433594 189.457031 291.390625 C 189.484375 291.371094 189.511719 291.351562 189.539062 291.339844 C 189.605469 291.292969 189.671875 291.246094 189.738281 291.191406 C 189.757812 291.175781 189.777344 291.164062 189.800781 291.144531 C 189.878906 291.078125 189.960938 291.007812 190.039062 290.933594 C 190.042969 290.929688 190.046875 290.925781 190.050781 290.921875 C 190.121094 290.851562 197.398438 283.75 209.339844 276.742188 C 220.316406 270.304688 237.496094 262.695312 257.058594 263.046875 C 258.535156 263.066406 259.878906 262.191406 260.445312 260.828125 L 278.777344 216.714844 C 279.21875 215.644531 279.125 214.425781 278.515625 213.441406 " fill-opacity="1" fill-rule="nonzero"/></svg>