<svg xmlns="http://www.w3.org/2000/svg" xmlns:xlink="http://www.w3.org/1999/xlink" width="500" zoomAndPan="magnify" viewBox="0 0 375 374.999991" height="500" preserveAspectRatio="xMidYMid meet" version="1.0"><defs><clipPath id="0c9251b63e"><path d="M 37.5 37.5 L 337.5 37.5 L 337.5 336.75 L 37.5 336.75 Z M 37.5 37.5 " clip-rule="nonzero"/></clipPath></defs><path fill="#008037" d="M 187.339844 90.855469 C 206.050781 90.855469 221.269531 106.078125 221.269531 124.789062 C 221.269531 143.5 206.050781 158.71875 187.339844 158.71875 C 168.628906 158.71875 153.410156 143.5 153.410156 124.789062 C 153.410156 106.078125 168.628906 90.855469 187.339844 90.855469 Z M 159.871094 223.367188 C 150.925781 219.289062 141.179688 216.1875 130.894531 214.152344 C 131.804688 195.703125 147.023438 182.003906 167.011719 182.003906 L 207.601562 182.003906 C 227.589844 182.003906 242.808594 195.714844 243.714844 214.164062 C 233.453125 216.207031 223.730469 219.296875 214.808594 223.367188 C 204.542969 228.050781 195.320312 234.039062 187.339844 241.195312 C 179.359375 234.039062 170.136719 228.050781 159.871094 223.367188 Z M 183.746094 280.203125 C 180.226562 277.410156 175.289062 273.820312 169.191406 270.242188 C 161.734375 265.867188 154.078125 262.40625 146.421875 259.960938 C 137.636719 257.152344 128.835938 255.675781 120.230469 255.570312 L 104.867188 218.605469 C 110.105469 218.65625 118.964844 219.117188 129.410156 221.183594 C 144.472656 224.15625 165.984375 231.160156 183.746094 247.636719 Z M 228.257812 259.960938 C 220.605469 262.40625 212.945312 265.867188 205.488281 270.242188 C 199.390625 273.820312 194.453125 277.410156 190.933594 280.203125 L 190.933594 247.636719 C 208.695312 231.160156 230.207031 224.15625 245.269531 221.183594 C 255.71875 219.117188 264.574219 218.65625 269.8125 218.605469 L 254.453125 255.570312 C 245.84375 255.679688 237.046875 257.152344 228.257812 259.960938 Z M 329.144531 154.996094 C 327.320312 145.710938 324.578125 136.605469 320.96875 127.855469 C 313.75 110.351562 303.039062 94.296875 289.648438 80.894531 C 276.265625 67.492188 260.230469 56.730469 242.730469 49.472656 C 233.980469 45.839844 224.875 43.074219 215.582031 41.230469 C 206.289062 39.382812 196.816406 38.460938 187.339844 38.453125 C 177.863281 38.460938 168.390625 39.382812 159.097656 41.230469 C 149.804688 43.070312 140.695312 45.839844 131.949219 49.472656 C 114.445312 56.730469 98.414062 67.492188 85.03125 80.894531 C 71.640625 94.296875 60.929688 110.351562 53.710938 127.855469 C 50.097656 136.605469 47.355469 145.707031 45.53125 154.996094 C 43.710938 164.28125 42.808594 173.742188 42.816406 183.203125 C 42.835938 192.664062 43.765625 202.121094 45.617188 211.398438 C 47.464844 220.671875 50.234375 229.761719 53.871094 238.488281 C 57.503906 247.214844 62 255.578125 67.269531 263.425781 C 72.535156 271.277344 78.582031 278.597656 85.261719 285.28125 C 98.632812 298.640625 114.636719 309.351562 132.097656 316.570312 C 140.828125 320.183594 149.914062 322.929688 159.179688 324.757812 C 168.445312 326.589844 177.894531 327.496094 187.339844 327.496094 C 196.785156 327.496094 206.234375 326.585938 215.496094 324.753906 C 224.765625 322.929688 233.851562 320.183594 242.578125 316.570312 C 260.042969 309.351562 276.042969 298.640625 289.417969 285.28125 C 296.101562 278.597656 302.140625 271.273438 307.40625 263.425781 C 312.675781 255.578125 317.175781 247.210938 320.808594 238.484375 C 324.441406 229.761719 327.210938 220.671875 329.058594 211.398438 C 330.910156 202.121094 331.839844 192.664062 331.863281 183.203125 C 331.871094 173.742188 330.96875 164.28125 329.144531 154.996094 " fill-opacity="1" fill-rule="nonzero"/><g clip-path="url(#0c9251b63e)"><path fill="#098940" d="M 329.054688 211.398438 C 327.207031 220.671875 324.441406 229.761719 320.804688 238.488281 C 317.175781 247.214844 312.671875 255.578125 307.40625 263.425781 C 302.136719 271.273438 296.097656 278.597656 289.414062 285.28125 C 276.042969 298.640625 260.039062 309.351562 242.578125 316.570312 C 233.847656 320.183594 224.761719 322.929688 215.496094 324.753906 C 206.230469 326.585938 196.785156 327.496094 187.339844 327.496094 C 177.890625 327.496094 168.445312 326.589844 159.179688 324.757812 C 149.910156 322.929688 140.824219 320.183594 132.097656 316.570312 C 114.636719 309.351562 98.632812 298.640625 85.261719 285.28125 C 78.582031 278.597656 72.535156 271.277344 67.269531 263.429688 C 62 255.578125 57.503906 247.21875 53.867188 238.488281 C 50.234375 229.761719 47.464844 220.671875 45.617188 211.398438 C 43.765625 202.125 42.835938 192.664062 42.816406 183.207031 C 42.808594 173.746094 43.707031 164.28125 45.53125 154.996094 C 47.355469 145.710938 50.097656 136.605469 53.710938 127.855469 C 60.929688 110.355469 71.640625 94.296875 85.03125 80.898438 C 98.414062 67.492188 114.445312 56.734375 131.949219 49.476562 C 140.695312 45.839844 149.804688 43.074219 159.097656 41.230469 C 168.386719 39.386719 177.863281 38.464844 187.339844 38.453125 C 196.816406 38.464844 206.289062 39.386719 215.582031 41.230469 C 224.875 43.078125 233.980469 45.839844 242.730469 49.476562 C 260.230469 56.734375 276.265625 67.492188 289.648438 80.898438 C 303.035156 94.300781 313.746094 110.355469 320.964844 127.855469 C 324.578125 136.605469 327.320312 145.710938 329.140625 154.996094 C 330.964844 164.28125 331.867188 173.746094 331.859375 183.207031 C 331.839844 192.664062 330.90625 202.125 329.054688 211.398438 Z M 336.964844 183.207031 C 336.691406 173.417969 335.476562 163.675781 333.324219 154.167969 C 332.25 149.417969 330.9375 144.722656 329.402344 140.109375 C 327.867188 135.5 326.097656 130.972656 324.136719 126.539062 C 322.171875 122.109375 319.992188 117.78125 317.601562 113.578125 C 316.410156 111.476562 315.164062 109.40625 313.871094 107.367188 C 313.554688 106.847656 313.226562 106.34375 312.894531 105.84375 L 311.902344 104.324219 C 311.578125 103.820312 311.234375 103.324219 310.890625 102.828125 L 309.863281 101.339844 C 307.09375 97.386719 304.132812 93.578125 301 89.925781 C 300.21875 89.011719 299.410156 88.117188 298.617188 87.214844 L 296.175781 84.566406 L 293.675781 81.964844 L 291.113281 79.429688 C 277.273438 66.097656 260.921875 55.492188 243.203125 48.339844 C 238.769531 46.554688 234.257812 44.988281 229.679688 43.625 C 225.101562 42.269531 220.460938 41.152344 215.777344 40.242188 C 211.097656 39.332031 206.367188 38.664062 201.621094 38.207031 C 196.875 37.75 192.105469 37.523438 187.339844 37.527344 C 182.570312 37.523438 177.800781 37.75 173.054688 38.207031 C 168.308594 38.664062 163.582031 39.332031 158.898438 40.242188 C 154.21875 41.15625 149.574219 42.273438 145 43.628906 C 140.421875 44.988281 135.90625 46.558594 131.476562 48.34375 C 113.757812 55.496094 97.410156 66.109375 83.574219 79.441406 C 76.679688 86.125 70.363281 93.445312 64.832031 101.351562 L 63.804688 102.839844 C 63.460938 103.332031 63.117188 103.828125 62.792969 104.335938 L 61.800781 105.851562 C 61.46875 106.355469 61.140625 106.859375 60.824219 107.378906 C 59.539062 109.417969 58.285156 111.484375 57.09375 113.589844 C 54.710938 117.792969 52.527344 122.121094 50.5625 126.550781 C 48.601562 130.984375 46.84375 135.511719 45.304688 140.121094 C 43.773438 144.734375 42.460938 149.421875 41.386719 154.175781 C 39.234375 163.679688 38.023438 173.421875 37.753906 183.207031 C 37.496094 192.988281 38.175781 202.835938 39.832031 212.542969 C 41.484375 222.25 44.089844 231.828125 47.660156 241.0625 C 54.78125 259.539062 65.683594 276.640625 79.550781 290.996094 C 83.019531 294.578125 86.664062 298 90.472656 301.234375 C 91.433594 302.03125 92.382812 302.84375 93.359375 303.625 C 94.335938 304.398438 95.308594 305.191406 96.300781 305.949219 C 97.304688 306.695312 98.296875 307.460938 99.3125 308.1875 L 100.835938 309.277344 C 101.347656 309.640625 101.855469 310.007812 102.375 310.355469 L 103.929688 311.410156 C 104.449219 311.761719 104.960938 312.113281 105.492188 312.445312 L 107.070312 313.464844 C 107.597656 313.804688 108.125 314.140625 108.664062 314.460938 C 110.792969 315.773438 112.957031 317.039062 115.152344 318.246094 C 119.542969 320.664062 124.058594 322.863281 128.679688 324.820312 C 137.910156 328.75 147.554688 331.738281 157.402344 333.734375 C 162.328125 334.726562 167.300781 335.480469 172.300781 335.984375 C 177.296875 336.476562 182.320312 336.726562 187.339844 336.738281 C 197.378906 336.726562 207.429688 335.746094 217.277344 333.746094 C 222.199219 332.757812 227.074219 331.507812 231.871094 330.015625 C 233.078125 329.664062 234.261719 329.25 235.453125 328.859375 C 236.652344 328.476562 237.824219 328.03125 239.007812 327.613281 C 240.195312 327.199219 241.355469 326.71875 242.527344 326.269531 C 243.699219 325.824219 244.847656 325.320312 246.007812 324.839844 C 250.625 322.875 255.148438 320.691406 259.535156 318.269531 C 263.929688 315.851562 268.199219 313.226562 272.320312 310.382812 C 280.574219 304.714844 288.214844 298.195312 295.15625 291.023438 C 309.03125 276.675781 319.9375 259.558594 327.058594 241.082031 C 334.203125 222.597656 337.496094 202.777344 336.964844 183.207031 " fill-opacity="1" fill-rule="nonzero"/></g><path fill="#000000" d="M 187.339844 158.722656 C 168.628906 158.722656 153.40625 143.5 153.40625 124.789062 C 153.40625 106.078125 168.628906 90.859375 187.339844 90.859375 C 206.050781 90.859375 221.269531 106.078125 221.269531 124.789062 C 221.269531 143.5 206.050781 158.722656 187.339844 158.722656 Z M 187.339844 83.667969 C 164.664062 83.667969 146.21875 102.113281 146.21875 124.789062 C 146.21875 147.464844 164.664062 165.910156 187.339844 165.910156 C 210.011719 165.910156 228.460938 147.464844 228.460938 124.789062 C 228.460938 102.113281 210.011719 83.667969 187.339844 83.667969 " fill-opacity="1" fill-rule="nonzero"/><path fill="#000000" d="M 254.449219 255.570312 C 245.84375 255.679688 237.042969 257.152344 228.257812 259.960938 C 220.601562 262.40625 212.941406 265.867188 205.488281 270.242188 C 199.390625 273.820312 194.453125 277.410156 190.933594 280.203125 L 190.933594 247.636719 C 208.695312 231.164062 230.207031 224.160156 245.269531 221.183594 C 255.71875 219.117188 264.570312 218.65625 269.8125 218.605469 Z M 187.339844 241.195312 C 179.359375 234.039062 170.136719 228.050781 159.871094 223.367188 C 150.925781 219.289062 141.179688 216.1875 130.894531 214.152344 C 131.804688 195.703125 147.023438 182.007812 167.007812 182.007812 L 207.597656 182.007812 C 227.585938 182.007812 242.808594 195.714844 243.714844 214.164062 C 233.453125 216.207031 223.730469 219.296875 214.808594 223.367188 C 204.542969 228.050781 195.320312 234.039062 187.339844 241.195312 Z M 183.746094 280.203125 C 180.226562 277.410156 175.289062 273.820312 169.191406 270.242188 C 161.734375 265.867188 154.074219 262.40625 146.421875 259.960938 C 137.636719 257.152344 128.835938 255.679688 120.226562 255.570312 L 104.867188 218.605469 C 110.105469 218.65625 118.964844 219.117188 129.410156 221.183594 C 144.46875 224.160156 165.984375 231.164062 183.746094 247.636719 Z M 278.214844 213.222656 C 277.605469 212.238281 276.5625 211.605469 275.410156 211.523438 C 274.933594 211.492188 265.03125 210.832031 250.839844 212.933594 C 250.121094 202.605469 245.679688 193.230469 238.140625 186.28125 C 230.117188 178.890625 219.269531 174.816406 207.597656 174.816406 L 167.007812 174.816406 C 155.335938 174.816406 144.488281 178.890625 136.464844 186.28125 C 128.929688 193.226562 124.484375 202.597656 123.765625 212.917969 C 109.617188 210.835938 99.742188 211.492188 99.269531 211.523438 C 98.117188 211.605469 97.070312 212.238281 96.464844 213.222656 C 95.855469 214.203125 95.757812 215.421875 96.203125 216.488281 L 114.511719 260.550781 C 115.078125 261.914062 116.417969 262.792969 117.894531 262.765625 C 137.351562 262.417969 154.457031 269.957031 165.378906 276.339844 C 177.351562 283.339844 184.75 290.535156 184.816406 290.605469 C 184.824219 290.609375 184.828125 290.613281 184.828125 290.613281 C 184.90625 290.6875 184.988281 290.761719 185.070312 290.828125 C 185.089844 290.84375 185.113281 290.859375 185.128906 290.875 C 185.195312 290.925781 185.261719 290.972656 185.328125 291.019531 C 185.355469 291.035156 185.382812 291.054688 185.410156 291.074219 C 185.480469 291.117188 185.550781 291.160156 185.625 291.199219 C 185.644531 291.210938 185.667969 291.222656 185.691406 291.234375 C 185.773438 291.28125 185.859375 291.316406 185.949219 291.359375 C 185.957031 291.359375 185.960938 291.359375 185.96875 291.363281 C 186.039062 291.394531 186.109375 291.417969 186.179688 291.441406 C 186.21875 291.453125 186.261719 291.472656 186.304688 291.484375 C 186.371094 291.503906 186.4375 291.515625 186.503906 291.535156 C 186.554688 291.542969 186.601562 291.558594 186.644531 291.570312 C 186.710938 291.582031 186.777344 291.589844 186.839844 291.597656 C 186.890625 291.605469 186.941406 291.617188 186.992188 291.621094 C 187.074219 291.628906 187.164062 291.628906 187.25 291.632812 C 187.277344 291.632812 187.308594 291.636719 187.339844 291.636719 C 187.371094 291.636719 187.398438 291.632812 187.425781 291.632812 C 187.515625 291.628906 187.601562 291.628906 187.6875 291.621094 C 187.738281 291.617188 187.789062 291.605469 187.835938 291.597656 C 187.902344 291.589844 187.96875 291.582031 188.03125 291.570312 C 188.082031 291.558594 188.128906 291.542969 188.175781 291.535156 C 188.246094 291.515625 188.308594 291.503906 188.375 291.484375 C 188.417969 291.472656 188.460938 291.453125 188.507812 291.4375 C 188.574219 291.414062 188.644531 291.390625 188.710938 291.363281 C 188.714844 291.359375 188.722656 291.359375 188.730469 291.359375 C 188.820312 291.316406 188.90625 291.28125 188.988281 291.234375 C 189.011719 291.222656 189.03125 291.210938 189.050781 291.199219 C 189.125 291.160156 189.195312 291.117188 189.269531 291.074219 C 189.292969 291.054688 189.320312 291.035156 189.347656 291.019531 C 189.417969 290.972656 189.484375 290.925781 189.546875 290.875 C 189.570312 290.859375 189.589844 290.84375 189.609375 290.828125 C 189.691406 290.761719 189.773438 290.6875 189.847656 290.613281 C 189.851562 290.613281 189.855469 290.609375 189.859375 290.605469 C 189.933594 290.535156 197.199219 283.441406 209.125 276.445312 C 220.085938 270.011719 237.246094 262.414062 256.785156 262.765625 C 258.257812 262.785156 259.601562 261.914062 260.167969 260.550781 L 278.476562 216.488281 C 278.917969 215.421875 278.824219 214.203125 278.214844 213.222656 " fill-opacity="1" fill-rule="nonzero"/></svg>