<svg xmlns="http://www.w3.org/2000/svg" xmlns:xlink="http://www.w3.org/1999/xlink" width="500" zoomAndPan="magnify" viewBox="0 0 375 374.999991" height="500" preserveAspectRatio="xMidYMid meet" version="1.0"><defs><clipPath id="8fb997d284"><path d="M 37.125 37.5 L 337.875 37.5 L 337.875 337.5 L 37.125 337.5 Z M 37.125 37.5 " clip-rule="nonzero"/></clipPath></defs><path fill="#7b2e92" d="M 187.339844 90.992188 C 206.09375 90.992188 221.355469 106.25 221.355469 125.007812 C 221.355469 143.765625 206.09375 159.023438 187.339844 159.023438 C 168.582031 159.023438 153.324219 143.765625 153.324219 125.007812 C 153.324219 106.25 168.582031 90.992188 187.339844 90.992188 Z M 159.800781 223.832031 C 150.835938 219.746094 141.0625 216.636719 130.753906 214.59375 C 131.664062 196.097656 146.921875 182.367188 166.957031 182.367188 L 207.648438 182.367188 C 227.6875 182.367188 242.945312 196.109375 243.851562 214.605469 C 233.570312 216.652344 223.820312 219.753906 214.875 223.832031 C 204.585938 228.527344 195.339844 234.53125 187.339844 241.703125 C 179.335938 234.53125 170.089844 228.527344 159.800781 223.832031 Z M 183.734375 280.808594 C 180.207031 278.007812 175.257812 274.414062 169.144531 270.824219 C 161.671875 266.4375 153.992188 262.96875 146.320312 260.515625 C 137.507812 257.703125 128.6875 256.222656 120.058594 256.117188 L 104.660156 219.058594 C 109.914062 219.109375 118.792969 219.574219 129.261719 221.644531 C 144.363281 224.625 165.929688 231.648438 183.734375 248.160156 Z M 228.359375 260.515625 C 220.6875 262.96875 213.007812 266.4375 205.53125 270.824219 C 199.417969 274.414062 194.46875 278.007812 190.941406 280.808594 L 190.941406 248.160156 C 208.746094 231.648438 230.3125 224.625 245.414062 221.644531 C 255.886719 219.574219 264.765625 219.109375 270.019531 219.058594 L 254.617188 256.117188 C 245.988281 256.226562 237.167969 257.703125 228.359375 260.515625 Z M 329.496094 155.289062 C 327.667969 145.980469 324.921875 136.851562 321.300781 128.082031 C 314.0625 110.535156 303.324219 94.441406 289.902344 81.003906 C 276.484375 67.566406 260.410156 56.78125 242.867188 49.503906 C 234.097656 45.859375 224.96875 43.089844 215.652344 41.242188 C 206.335938 39.390625 196.839844 38.464844 187.339844 38.453125 C 177.839844 38.464844 168.339844 39.390625 159.023438 41.242188 C 149.707031 43.085938 140.578125 45.859375 131.808594 49.503906 C 114.261719 56.78125 98.191406 67.566406 84.773438 81.003906 C 71.351562 94.4375 60.613281 110.535156 53.375 128.082031 C 49.753906 136.851562 47.003906 145.980469 45.175781 155.289062 C 43.347656 164.597656 42.445312 174.085938 42.453125 183.570312 C 42.472656 193.054688 43.40625 202.535156 45.261719 211.832031 C 47.117188 221.132812 49.890625 230.242188 53.535156 238.992188 C 57.175781 247.742188 61.6875 256.125 66.96875 263.992188 C 72.246094 271.863281 78.308594 279.203125 85.003906 285.902344 C 98.410156 299.292969 114.453125 310.03125 131.957031 317.269531 C 140.710938 320.894531 149.816406 323.644531 159.109375 325.476562 C 168.398438 327.3125 177.867188 328.222656 187.339844 328.222656 C 196.808594 328.21875 206.28125 327.308594 215.566406 325.472656 C 224.859375 323.644531 233.964844 320.890625 242.714844 317.265625 C 260.222656 310.03125 276.265625 299.292969 289.671875 285.902344 C 296.371094 279.203125 302.425781 271.859375 307.707031 263.992188 C 312.988281 256.125 317.5 247.738281 321.140625 238.988281 C 324.785156 230.242188 327.558594 221.132812 329.410156 211.832031 C 331.269531 202.535156 332.203125 193.054688 332.222656 183.570312 C 332.230469 174.085938 331.324219 164.597656 329.496094 155.289062 " fill-opacity="1" fill-rule="nonzero"/><g clip-path="url(#8fb997d284)"><path fill="#5d1772" d="M 329.410156 211.832031 C 327.554688 221.132812 324.78125 230.242188 321.140625 238.988281 C 317.496094 247.738281 312.984375 256.125 307.703125 263.992188 C 302.421875 271.859375 296.367188 279.203125 289.667969 285.902344 C 276.265625 299.292969 260.21875 310.03125 242.714844 317.269531 C 233.964844 320.890625 224.855469 323.644531 215.566406 325.472656 C 206.277344 327.3125 196.808594 328.21875 187.335938 328.222656 C 177.867188 328.222656 168.398438 327.3125 159.109375 325.480469 C 149.816406 323.644531 140.707031 320.894531 131.957031 317.269531 C 114.453125 310.03125 98.40625 299.292969 85.003906 285.902344 C 78.308594 279.203125 72.246094 271.863281 66.96875 263.992188 C 61.6875 256.125 57.175781 247.742188 53.535156 238.992188 C 49.890625 230.242188 47.117188 221.132812 45.261719 211.832031 C 43.40625 202.539062 42.472656 193.054688 42.453125 183.570312 C 42.445312 174.085938 43.347656 164.597656 45.175781 155.289062 C 47.003906 145.980469 49.753906 136.855469 53.375 128.082031 C 60.609375 110.539062 71.351562 94.441406 84.773438 81.007812 C 98.191406 67.566406 114.261719 56.78125 131.808594 49.507812 C 140.578125 45.863281 149.707031 43.089844 159.023438 41.242188 C 168.339844 39.394531 177.835938 38.464844 187.335938 38.457031 C 196.839844 38.464844 206.335938 39.394531 215.652344 41.242188 C 224.96875 43.09375 234.097656 45.863281 242.867188 49.507812 C 260.410156 56.78125 276.484375 67.566406 289.902344 81.007812 C 303.320312 94.441406 314.0625 110.539062 321.296875 128.082031 C 324.917969 136.855469 327.667969 145.984375 329.496094 155.289062 C 331.324219 164.597656 332.226562 174.085938 332.21875 183.570312 C 332.199219 193.054688 331.265625 202.539062 329.410156 211.832031 Z M 337.335938 183.570312 C 337.0625 173.757812 335.847656 163.992188 333.6875 154.460938 C 332.609375 149.699219 331.292969 144.992188 329.757812 140.367188 C 328.21875 135.746094 326.445312 131.207031 324.480469 126.765625 C 322.507812 122.320312 320.320312 117.984375 317.925781 113.769531 C 316.730469 111.660156 315.480469 109.585938 314.183594 107.539062 C 313.871094 107.023438 313.542969 106.519531 313.207031 106.015625 L 312.210938 104.492188 C 311.886719 103.984375 311.542969 103.488281 311.199219 102.992188 L 310.167969 101.5 C 307.390625 97.539062 304.425781 93.71875 301.28125 90.058594 C 300.5 89.140625 299.6875 88.246094 298.890625 87.339844 L 296.445312 84.683594 L 293.9375 82.078125 L 291.371094 79.535156 C 277.496094 66.167969 261.101562 55.539062 243.339844 48.371094 C 238.898438 46.578125 234.371094 45.007812 229.785156 43.644531 C 225.195312 42.285156 220.539062 41.160156 215.847656 40.25 C 211.152344 39.335938 206.414062 38.667969 201.65625 38.207031 C 196.898438 37.75 192.117188 37.527344 187.335938 37.53125 C 182.558594 37.527344 177.777344 37.75 173.019531 38.207031 C 168.261719 38.667969 163.519531 39.335938 158.828125 40.25 C 154.132812 41.164062 149.476562 42.285156 144.890625 43.644531 C 140.304688 45.007812 135.777344 46.582031 131.335938 48.371094 C 113.574219 55.542969 97.183594 66.183594 83.3125 79.546875 C 76.402344 86.25 70.066406 93.585938 64.523438 101.511719 L 63.492188 103.003906 C 63.148438 103.5 62.804688 103.996094 62.476562 104.503906 L 61.484375 106.023438 C 61.152344 106.527344 60.820312 107.035156 60.507812 107.550781 C 59.214844 109.597656 57.964844 111.671875 56.769531 113.78125 C 54.378906 117.996094 52.191406 122.332031 50.21875 126.773438 C 48.253906 131.21875 46.488281 135.757812 44.949219 140.378906 C 43.410156 145.003906 42.097656 149.703125 41.019531 154.46875 C 38.863281 163.996094 37.648438 173.761719 37.378906 183.570312 C 37.121094 193.378906 37.804688 203.25 39.460938 212.980469 C 41.121094 222.710938 43.726562 232.316406 47.308594 241.570312 C 54.449219 260.097656 65.378906 277.242188 79.277344 291.628906 C 82.753906 295.222656 86.410156 298.652344 90.226562 301.894531 C 91.191406 302.695312 92.144531 303.507812 93.121094 304.292969 C 94.105469 305.066406 95.078125 305.863281 96.074219 306.621094 C 97.078125 307.367188 98.074219 308.136719 99.089844 308.867188 L 100.621094 309.957031 C 101.132812 310.320312 101.640625 310.691406 102.160156 311.039062 L 103.71875 312.09375 C 104.238281 312.449219 104.753906 312.800781 105.285156 313.136719 L 106.871094 314.15625 C 107.394531 314.496094 107.925781 314.832031 108.464844 315.15625 C 110.601562 316.472656 112.769531 317.738281 114.972656 318.949219 C 119.371094 321.371094 123.898438 323.578125 128.53125 325.539062 C 137.785156 329.480469 147.457031 332.472656 157.328125 334.476562 C 162.261719 335.472656 167.25 336.226562 172.261719 336.730469 C 177.273438 337.222656 182.304688 337.476562 187.335938 337.488281 C 197.402344 337.472656 207.476562 336.492188 217.351562 334.484375 C 222.285156 333.496094 227.171875 332.246094 231.984375 330.75 C 233.191406 330.398438 234.375 329.980469 235.574219 329.589844 C 236.773438 329.203125 237.949219 328.757812 239.136719 328.339844 C 240.324219 327.925781 241.488281 327.441406 242.664062 326.992188 C 243.839844 326.546875 244.992188 326.039062 246.15625 325.558594 C 250.78125 323.589844 255.316406 321.402344 259.714844 318.972656 C 264.117188 316.550781 268.398438 313.917969 272.53125 311.066406 C 280.804688 305.382812 288.46875 298.847656 295.425781 291.65625 C 309.332031 277.273438 320.265625 260.117188 327.40625 241.589844 C 334.570312 223.0625 337.871094 203.191406 337.335938 183.570312 " fill-opacity="1" fill-rule="nonzero"/></g><path fill="#000000" d="M 187.339844 159.027344 C 168.582031 159.027344 153.320312 143.765625 153.320312 125.007812 C 153.320312 106.253906 168.582031 90.992188 187.339844 90.992188 C 206.09375 90.992188 221.355469 106.253906 221.355469 125.007812 C 221.355469 143.765625 206.09375 159.027344 187.339844 159.027344 Z M 187.339844 83.785156 C 164.609375 83.785156 146.113281 102.277344 146.113281 125.007812 C 146.113281 147.738281 164.609375 166.230469 187.339844 166.230469 C 210.066406 166.230469 228.5625 147.738281 228.5625 125.007812 C 228.5625 102.277344 210.066406 83.785156 187.339844 83.785156 " fill-opacity="1" fill-rule="nonzero"/><path fill="#000000" d="M 254.617188 256.117188 C 245.988281 256.226562 237.167969 257.703125 228.359375 260.519531 C 220.683594 262.96875 213.007812 266.4375 205.53125 270.824219 C 199.417969 274.414062 194.46875 278.011719 190.941406 280.8125 L 190.941406 248.160156 C 208.746094 231.648438 230.3125 224.625 245.414062 221.644531 C 255.886719 219.574219 264.761719 219.109375 270.015625 219.058594 Z M 187.339844 241.703125 C 179.335938 234.53125 170.089844 228.527344 159.800781 223.832031 C 150.832031 219.746094 141.0625 216.636719 130.753906 214.59375 C 131.664062 196.101562 146.921875 182.367188 166.957031 182.367188 L 207.648438 182.367188 C 227.6875 182.367188 242.945312 196.109375 243.851562 214.609375 C 233.570312 216.652344 223.820312 219.753906 214.875 223.832031 C 204.582031 228.527344 195.339844 234.53125 187.339844 241.703125 Z M 183.734375 280.8125 C 180.207031 278.011719 175.257812 274.414062 169.144531 270.824219 C 161.671875 266.4375 153.992188 262.96875 146.320312 260.519531 C 137.507812 257.703125 128.6875 256.226562 120.058594 256.117188 L 104.65625 219.058594 C 109.914062 219.109375 118.792969 219.574219 129.261719 221.644531 C 144.363281 224.625 165.929688 231.648438 183.734375 248.160156 Z M 278.441406 213.664062 C 277.832031 212.675781 276.785156 212.042969 275.628906 211.960938 C 275.152344 211.925781 265.222656 211.265625 250.996094 213.371094 C 250.277344 203.019531 245.824219 193.617188 238.265625 186.65625 C 230.222656 179.246094 219.351562 175.160156 207.648438 175.160156 L 166.957031 175.160156 C 155.253906 175.160156 144.378906 179.246094 136.335938 186.65625 C 128.78125 193.617188 124.328125 203.011719 123.605469 213.359375 C 109.421875 211.269531 99.523438 211.925781 99.046875 211.960938 C 97.890625 212.042969 96.84375 212.675781 96.234375 213.664062 C 95.625 214.644531 95.527344 215.867188 95.972656 216.9375 L 114.328125 261.109375 C 114.894531 262.472656 116.238281 263.355469 117.71875 263.328125 C 137.226562 262.980469 154.375 270.539062 165.324219 276.9375 C 177.324219 283.957031 184.742188 291.167969 184.808594 291.238281 C 184.816406 291.242188 184.820312 291.246094 184.820312 291.25 C 184.898438 291.324219 184.980469 291.394531 185.0625 291.464844 C 185.085938 291.480469 185.105469 291.492188 185.125 291.511719 C 185.1875 291.5625 185.253906 291.609375 185.324219 291.652344 C 185.351562 291.671875 185.378906 291.691406 185.40625 291.710938 C 185.476562 291.75 185.542969 291.796875 185.617188 291.832031 C 185.640625 291.847656 185.660156 291.859375 185.683594 291.871094 C 185.769531 291.914062 185.855469 291.953125 185.945312 291.996094 C 185.949219 291.996094 185.957031 291.996094 185.964844 292 C 186.035156 292.027344 186.105469 292.050781 186.175781 292.074219 C 186.214844 292.089844 186.257812 292.109375 186.300781 292.117188 C 186.367188 292.140625 186.433594 292.152344 186.5 292.171875 C 186.550781 292.179688 186.597656 292.195312 186.640625 292.203125 C 186.707031 292.21875 186.773438 292.226562 186.835938 292.234375 C 186.886719 292.242188 186.941406 292.25 186.992188 292.253906 C 187.074219 292.265625 187.160156 292.265625 187.246094 292.269531 C 187.277344 292.269531 187.308594 292.273438 187.339844 292.273438 C 187.367188 292.273438 187.398438 292.269531 187.425781 292.269531 C 187.515625 292.265625 187.601562 292.265625 187.683594 292.253906 C 187.738281 292.25 187.789062 292.242188 187.835938 292.234375 C 187.902344 292.226562 187.96875 292.21875 188.03125 292.203125 C 188.082031 292.195312 188.132812 292.179688 188.179688 292.171875 C 188.246094 292.152344 188.3125 292.140625 188.375 292.117188 C 188.421875 292.109375 188.460938 292.089844 188.507812 292.074219 C 188.578125 292.050781 188.644531 292.027344 188.710938 292 C 188.71875 291.996094 188.726562 291.996094 188.730469 291.996094 C 188.820312 291.953125 188.910156 291.914062 188.992188 291.867188 C 189.015625 291.859375 189.03125 291.847656 189.054688 291.832031 C 189.128906 291.796875 189.199219 291.75 189.269531 291.710938 C 189.296875 291.691406 189.324219 291.671875 189.351562 291.65625 C 189.421875 291.609375 189.488281 291.5625 189.550781 291.511719 C 189.574219 291.492188 189.59375 291.480469 189.613281 291.464844 C 189.695312 291.394531 189.777344 291.324219 189.855469 291.25 C 189.855469 291.246094 189.859375 291.242188 189.863281 291.238281 C 189.9375 291.167969 197.222656 284.058594 209.175781 277.042969 C 220.167969 270.59375 237.367188 262.976562 256.957031 263.328125 C 258.433594 263.347656 259.78125 262.472656 260.347656 261.109375 L 278.703125 216.9375 C 279.144531 215.867188 279.050781 214.644531 278.441406 213.664062 " fill-opacity="1" fill-rule="nonzero"/></svg>