<svg xmlns="http://www.w3.org/2000/svg" xmlns:xlink="http://www.w3.org/1999/xlink" width="500" zoomAndPan="magnify" viewBox="0 0 375 374.999991" height="500" preserveAspectRatio="xMidYMid meet" version="1.0"><defs><clipPath id="c407ea61a8"><path d="M 37.5 37.875 L 337.5 37.875 L 337.5 337.125 L 37.5 337.125 Z M 37.5 37.875 " clip-rule="nonzero"/></clipPath></defs><path fill="#38b6ff" d="M 187.339844 91.230469 C 206.050781 91.230469 221.269531 106.453125 221.269531 125.164062 C 221.269531 143.875 206.050781 159.09375 187.339844 159.09375 C 168.628906 159.09375 153.410156 143.875 153.410156 125.164062 C 153.410156 106.453125 168.628906 91.230469 187.339844 91.230469 Z M 159.871094 223.742188 C 150.925781 219.664062 141.179688 216.5625 130.894531 214.527344 C 131.804688 196.078125 147.023438 182.378906 167.011719 182.378906 L 207.601562 182.378906 C 227.589844 182.378906 242.808594 196.089844 243.714844 214.539062 C 233.453125 216.582031 223.730469 219.671875 214.808594 223.742188 C 204.542969 228.425781 195.320312 234.414062 187.339844 241.570312 C 179.359375 234.414062 170.136719 228.425781 159.871094 223.742188 Z M 183.746094 280.578125 C 180.226562 277.785156 175.289062 274.195312 169.191406 270.617188 C 161.734375 266.242188 154.078125 262.78125 146.421875 260.335938 C 137.636719 257.527344 128.835938 256.050781 120.230469 255.945312 L 104.867188 218.980469 C 110.105469 219.03125 118.964844 219.492188 129.410156 221.558594 C 144.472656 224.53125 165.984375 231.535156 183.746094 248.011719 Z M 228.257812 260.335938 C 220.605469 262.78125 212.945312 266.242188 205.488281 270.617188 C 199.390625 274.195312 194.453125 277.785156 190.933594 280.578125 L 190.933594 248.011719 C 208.695312 231.535156 230.207031 224.53125 245.269531 221.558594 C 255.71875 219.492188 264.574219 219.03125 269.8125 218.980469 L 254.453125 255.945312 C 245.84375 256.054688 237.046875 257.527344 228.257812 260.335938 Z M 329.144531 155.371094 C 327.320312 146.085938 324.578125 136.980469 320.96875 128.230469 C 313.75 110.726562 303.039062 94.671875 289.648438 81.269531 C 276.265625 67.867188 260.230469 57.105469 242.730469 49.847656 C 233.980469 46.214844 224.875 43.449219 215.582031 41.605469 C 206.289062 39.757812 196.816406 38.835938 187.339844 38.828125 C 177.863281 38.835938 168.390625 39.757812 159.097656 41.605469 C 149.804688 43.445312 140.695312 46.214844 131.949219 49.847656 C 114.445312 57.105469 98.414062 67.867188 85.03125 81.269531 C 71.640625 94.671875 60.929688 110.726562 53.710938 128.230469 C 50.097656 136.980469 47.355469 146.082031 45.53125 155.371094 C 43.710938 164.65625 42.808594 174.117188 42.816406 183.578125 C 42.835938 193.039062 43.765625 202.496094 45.617188 211.773438 C 47.464844 221.046875 50.234375 230.136719 53.871094 238.863281 C 57.503906 247.589844 62 255.953125 67.269531 263.800781 C 72.535156 271.652344 78.582031 278.972656 85.261719 285.65625 C 98.632812 299.015625 114.636719 309.726562 132.097656 316.945312 C 140.828125 320.558594 149.914062 323.304688 159.179688 325.132812 C 168.445312 326.964844 177.894531 327.871094 187.339844 327.871094 C 196.785156 327.871094 206.234375 326.960938 215.496094 325.128906 C 224.765625 323.304688 233.851562 320.558594 242.578125 316.945312 C 260.042969 309.726562 276.042969 299.015625 289.417969 285.65625 C 296.101562 278.972656 302.140625 271.648438 307.40625 263.800781 C 312.675781 255.953125 317.175781 247.585938 320.808594 238.859375 C 324.441406 230.136719 327.210938 221.046875 329.058594 211.773438 C 330.910156 202.496094 331.839844 193.039062 331.863281 183.578125 C 331.871094 174.117188 330.96875 164.65625 329.144531 155.371094 " fill-opacity="1" fill-rule="nonzero"/><g clip-path="url(#c407ea61a8)"><path fill="#40a8e4" d="M 329.054688 211.773438 C 327.207031 221.046875 324.441406 230.136719 320.804688 238.863281 C 317.175781 247.589844 312.671875 255.953125 307.40625 263.800781 C 302.136719 271.648438 296.097656 278.972656 289.414062 285.65625 C 276.042969 299.015625 260.039062 309.726562 242.578125 316.945312 C 233.847656 320.558594 224.761719 323.304688 215.496094 325.128906 C 206.230469 326.960938 196.785156 327.871094 187.339844 327.871094 C 177.890625 327.871094 168.445312 326.964844 159.179688 325.132812 C 149.910156 323.304688 140.824219 320.558594 132.097656 316.945312 C 114.636719 309.726562 98.632812 299.015625 85.261719 285.65625 C 78.582031 278.972656 72.535156 271.652344 67.269531 263.804688 C 62 255.953125 57.503906 247.59375 53.867188 238.863281 C 50.234375 230.136719 47.464844 221.046875 45.617188 211.773438 C 43.765625 202.5 42.835938 193.039062 42.816406 183.582031 C 42.808594 174.121094 43.707031 164.65625 45.53125 155.371094 C 47.355469 146.085938 50.097656 136.980469 53.710938 128.230469 C 60.929688 110.730469 71.640625 94.671875 85.03125 81.273438 C 98.414062 67.867188 114.445312 57.109375 131.949219 49.851562 C 140.695312 46.214844 149.804688 43.449219 159.097656 41.605469 C 168.386719 39.761719 177.863281 38.839844 187.339844 38.828125 C 196.816406 38.839844 206.289062 39.761719 215.582031 41.605469 C 224.875 43.453125 233.980469 46.214844 242.730469 49.851562 C 260.230469 57.109375 276.265625 67.867188 289.648438 81.273438 C 303.035156 94.675781 313.746094 110.730469 320.964844 128.230469 C 324.578125 136.980469 327.320312 146.085938 329.140625 155.371094 C 330.964844 164.65625 331.867188 174.121094 331.859375 183.582031 C 331.839844 193.039062 330.90625 202.5 329.054688 211.773438 Z M 336.964844 183.582031 C 336.691406 173.792969 335.476562 164.050781 333.324219 154.542969 C 332.25 149.792969 330.9375 145.097656 329.402344 140.484375 C 327.867188 135.875 326.097656 131.347656 324.136719 126.914062 C 322.171875 122.484375 319.992188 118.15625 317.601562 113.953125 C 316.410156 111.851562 315.164062 109.78125 313.871094 107.742188 C 313.554688 107.222656 313.226562 106.71875 312.894531 106.21875 L 311.902344 104.699219 C 311.578125 104.195312 311.234375 103.699219 310.890625 103.203125 L 309.863281 101.714844 C 307.09375 97.761719 304.132812 93.953125 301 90.300781 C 300.21875 89.386719 299.410156 88.492188 298.617188 87.589844 L 296.175781 84.941406 L 293.675781 82.339844 L 291.113281 79.804688 C 277.273438 66.472656 260.921875 55.867188 243.203125 48.714844 C 238.769531 46.929688 234.257812 45.363281 229.679688 44 C 225.101562 42.644531 220.460938 41.527344 215.777344 40.617188 C 211.097656 39.707031 206.367188 39.039062 201.621094 38.582031 C 196.875 38.125 192.105469 37.898438 187.339844 37.902344 C 182.570312 37.898438 177.800781 38.125 173.054688 38.582031 C 168.308594 39.039062 163.582031 39.707031 158.898438 40.617188 C 154.21875 41.53125 149.574219 42.648438 145 44.003906 C 140.421875 45.363281 135.90625 46.933594 131.476562 48.71875 C 113.757812 55.871094 97.410156 66.484375 83.574219 79.816406 C 76.679688 86.5 70.363281 93.820312 64.832031 101.726562 L 63.804688 103.214844 C 63.460938 103.707031 63.117188 104.203125 62.792969 104.710938 L 61.800781 106.226562 C 61.46875 106.730469 61.140625 107.234375 60.824219 107.753906 C 59.539062 109.792969 58.285156 111.859375 57.09375 113.964844 C 54.710938 118.167969 52.527344 122.496094 50.5625 126.925781 C 48.601562 131.359375 46.84375 135.886719 45.304688 140.496094 C 43.773438 145.109375 42.460938 149.796875 41.386719 154.550781 C 39.234375 164.054688 38.023438 173.796875 37.753906 183.582031 C 37.496094 193.363281 38.175781 203.210938 39.832031 212.917969 C 41.484375 222.625 44.089844 232.203125 47.660156 241.4375 C 54.78125 259.914062 65.683594 277.015625 79.550781 291.371094 C 83.019531 294.953125 86.664062 298.375 90.472656 301.609375 C 91.433594 302.40625 92.382812 303.21875 93.359375 304 C 94.335938 304.773438 95.308594 305.566406 96.300781 306.324219 C 97.304688 307.070312 98.296875 307.835938 99.3125 308.5625 L 100.835938 309.652344 C 101.347656 310.015625 101.855469 310.382812 102.375 310.730469 L 103.929688 311.785156 C 104.449219 312.136719 104.960938 312.488281 105.492188 312.820312 L 107.070312 313.839844 C 107.597656 314.179688 108.125 314.515625 108.664062 314.835938 C 110.792969 316.148438 112.957031 317.414062 115.152344 318.621094 C 119.542969 321.039062 124.058594 323.238281 128.679688 325.195312 C 137.910156 329.125 147.554688 332.113281 157.402344 334.109375 C 162.328125 335.101562 167.300781 335.855469 172.300781 336.359375 C 177.296875 336.851562 182.320312 337.101562 187.339844 337.113281 C 197.378906 337.101562 207.429688 336.121094 217.277344 334.121094 C 222.199219 333.132812 227.074219 331.882812 231.871094 330.390625 C 233.078125 330.039062 234.261719 329.625 235.453125 329.234375 C 236.652344 328.851562 237.824219 328.40625 239.007812 327.988281 C 240.195312 327.574219 241.355469 327.09375 242.527344 326.644531 C 243.699219 326.199219 244.847656 325.695312 246.007812 325.214844 C 250.625 323.25 255.148438 321.066406 259.535156 318.644531 C 263.929688 316.226562 268.199219 313.601562 272.320312 310.757812 C 280.574219 305.089844 288.214844 298.570312 295.15625 291.398438 C 309.03125 277.050781 319.9375 259.933594 327.058594 241.457031 C 334.203125 222.972656 337.496094 203.152344 336.964844 183.582031 " fill-opacity="1" fill-rule="nonzero"/></g><path fill="#000000" d="M 187.339844 159.097656 C 168.628906 159.097656 153.40625 143.875 153.40625 125.164062 C 153.40625 106.453125 168.628906 91.234375 187.339844 91.234375 C 206.050781 91.234375 221.269531 106.453125 221.269531 125.164062 C 221.269531 143.875 206.050781 159.097656 187.339844 159.097656 Z M 187.339844 84.042969 C 164.664062 84.042969 146.21875 102.488281 146.21875 125.164062 C 146.21875 147.839844 164.664062 166.285156 187.339844 166.285156 C 210.011719 166.285156 228.460938 147.839844 228.460938 125.164062 C 228.460938 102.488281 210.011719 84.042969 187.339844 84.042969 " fill-opacity="1" fill-rule="nonzero"/><path fill="#000000" d="M 254.449219 255.945312 C 245.84375 256.054688 237.042969 257.527344 228.257812 260.335938 C 220.601562 262.78125 212.941406 266.242188 205.488281 270.617188 C 199.390625 274.195312 194.453125 277.785156 190.933594 280.578125 L 190.933594 248.011719 C 208.695312 231.539062 230.207031 224.535156 245.269531 221.558594 C 255.71875 219.492188 264.570312 219.03125 269.8125 218.980469 Z M 187.339844 241.570312 C 179.359375 234.414062 170.136719 228.425781 159.871094 223.742188 C 150.925781 219.664062 141.179688 216.5625 130.894531 214.527344 C 131.804688 196.078125 147.023438 182.382812 167.007812 182.382812 L 207.597656 182.382812 C 227.585938 182.382812 242.808594 196.089844 243.714844 214.539062 C 233.453125 216.582031 223.730469 219.671875 214.808594 223.742188 C 204.542969 228.425781 195.320312 234.414062 187.339844 241.570312 Z M 183.746094 280.578125 C 180.226562 277.785156 175.289062 274.195312 169.191406 270.617188 C 161.734375 266.242188 154.074219 262.78125 146.421875 260.335938 C 137.636719 257.527344 128.835938 256.054688 120.226562 255.945312 L 104.867188 218.980469 C 110.105469 219.03125 118.964844 219.492188 129.410156 221.558594 C 144.46875 224.535156 165.984375 231.539062 183.746094 248.011719 Z M 278.214844 213.597656 C 277.605469 212.613281 276.5625 211.980469 275.410156 211.898438 C 274.933594 211.867188 265.03125 211.207031 250.839844 213.308594 C 250.121094 202.980469 245.679688 193.605469 238.140625 186.65625 C 230.117188 179.265625 219.269531 175.191406 207.597656 175.191406 L 167.007812 175.191406 C 155.335938 175.191406 144.488281 179.265625 136.464844 186.65625 C 128.929688 193.601562 124.484375 202.972656 123.765625 213.292969 C 109.617188 211.210938 99.742188 211.867188 99.269531 211.898438 C 98.117188 211.980469 97.070312 212.613281 96.464844 213.597656 C 95.855469 214.578125 95.757812 215.796875 96.203125 216.863281 L 114.511719 260.925781 C 115.078125 262.289062 116.417969 263.167969 117.894531 263.140625 C 137.351562 262.792969 154.457031 270.332031 165.378906 276.714844 C 177.351562 283.714844 184.75 290.910156 184.816406 290.980469 C 184.824219 290.984375 184.828125 290.988281 184.828125 290.988281 C 184.90625 291.0625 184.988281 291.136719 185.070312 291.203125 C 185.089844 291.21875 185.113281 291.234375 185.128906 291.25 C 185.195312 291.300781 185.261719 291.347656 185.328125 291.394531 C 185.355469 291.410156 185.382812 291.429688 185.410156 291.449219 C 185.480469 291.492188 185.550781 291.535156 185.625 291.574219 C 185.644531 291.585938 185.667969 291.597656 185.691406 291.609375 C 185.773438 291.65625 185.859375 291.691406 185.949219 291.734375 C 185.957031 291.734375 185.960938 291.734375 185.96875 291.738281 C 186.039062 291.769531 186.109375 291.792969 186.179688 291.816406 C 186.21875 291.828125 186.261719 291.847656 186.304688 291.859375 C 186.371094 291.878906 186.4375 291.890625 186.503906 291.910156 C 186.554688 291.917969 186.601562 291.933594 186.644531 291.945312 C 186.710938 291.957031 186.777344 291.964844 186.839844 291.972656 C 186.890625 291.980469 186.941406 291.992188 186.992188 291.996094 C 187.074219 292.003906 187.164062 292.003906 187.25 292.007812 C 187.277344 292.007812 187.308594 292.011719 187.339844 292.011719 C 187.371094 292.011719 187.398438 292.007812 187.425781 292.007812 C 187.515625 292.003906 187.601562 292.003906 187.6875 291.996094 C 187.738281 291.992188 187.789062 291.980469 187.835938 291.972656 C 187.902344 291.964844 187.96875 291.957031 188.03125 291.945312 C 188.082031 291.933594 188.128906 291.917969 188.175781 291.910156 C 188.246094 291.890625 188.308594 291.878906 188.375 291.859375 C 188.417969 291.847656 188.460938 291.828125 188.507812 291.8125 C 188.574219 291.789062 188.644531 291.765625 188.710938 291.738281 C 188.714844 291.734375 188.722656 291.734375 188.730469 291.734375 C 188.820312 291.691406 188.90625 291.65625 188.988281 291.609375 C 189.011719 291.597656 189.03125 291.585938 189.050781 291.574219 C 189.125 291.535156 189.195312 291.492188 189.269531 291.449219 C 189.292969 291.429688 189.320312 291.410156 189.347656 291.394531 C 189.417969 291.347656 189.484375 291.300781 189.546875 291.25 C 189.570312 291.234375 189.589844 291.21875 189.609375 291.203125 C 189.691406 291.136719 189.773438 291.0625 189.847656 290.988281 C 189.851562 290.988281 189.855469 290.984375 189.859375 290.980469 C 189.933594 290.910156 197.199219 283.816406 209.125 276.820312 C 220.085938 270.386719 237.246094 262.789062 256.785156 263.140625 C 258.257812 263.160156 259.601562 262.289062 260.167969 260.925781 L 278.476562 216.863281 C 278.917969 215.796875 278.824219 214.578125 278.214844 213.597656 " fill-opacity="1" fill-rule="nonzero"/></svg>